<svg viewBox="0 0 500 500" xmlns="http://www.w3.org/2000/svg">
  <defs></defs>
  <g>
    <rect x="103.471" y="9.53" width="293.057" height="480.94" style="fill: none; stroke: rgb(0, 17, 255); stroke-width: 17px;"></rect>
    <ellipse style="fill: none; stroke: rgb(0, 17, 255); stroke-width: 13px;" cx="250" cy="250" rx="100.381" ry="100.381"></ellipse>
    <path style="fill: none; stroke: rgb(0, 17, 255); stroke-width: 7px;" d="M 236.207 151.578 L 222.681 201.768 L 248.094 235.44 L 294.473 240.523 L 314.803 262.759 C 314.803 262.759 310.356 274.831 310.356 275.466 C 310.356 276.101 308.45 283.725 313.532 284.36 C 318.614 284.995 340.851 292.62 340.851 292.62 L 350.869 236.076 C 350.869 236.076 347.552 218.712 337.261 201.992 C 329.618 189.574 317.968 177.51 316.073 173.178 C 311.626 163.012 269.392 151.097 269.392 151.097 L 236.207 151.578 Z"></path>
    <path style="fill: none; stroke: rgb(0, 17, 255); stroke-width: 7px;" d="M 190.83 221.29 L 154.253 259.356 L 154.194 278.197 C 151.88 283.369 178.864 293.901 183.793 282.884 L 181.661 306.132 C 181.661 306.132 171.442 314.045 171.145 314.532 C 170.847 315.019 167.966 322.212 170.758 322.7 C 173.55 323.187 188.515 329.035 188.515 329.035 L 218.125 285.668 C 218.125 285.668 230.678 267.738 227.86 260.73 C 225.042 253.722 194.045 217.345 190.83 221.29 Z" transform="matrix(-0.999192, 0.040185, -0.040185, -0.999192, 393.222809, 542.122752)"></path>
    <path style="fill: none; stroke: rgb(0, 17, 255); stroke-width: 7px;" d="M 265.983 307.485 L 241.778 322.22 L 263.231 347.029 L 278.881 344.91 C 278.881 344.91 290.852 333.242 296.077 332.754 C 301.399 332.257 285.924 324.549 289.796 319.819 C 297.059 310.946 309.123 308.002 308.554 307.86 C 307.375 307.568 265.983 307.485 265.983 307.485 Z" transform="matrix(-0.999192, 0.040185, -0.040185, -0.999192, 563.279972, 643.19171)"></path>
  </g>
</svg>